<?xml version="1.0" standalone="no"?>
<!DOCTYPE svg PUBLIC "-//W3C//DTD SVG 20010904//EN"
 "http://www.w3.org/TR/2001/REC-SVG-20010904/DTD/svg10.dtd">
<svg version="1.0" xmlns="http://www.w3.org/2000/svg"
 width="310.000000pt" height="310.000000pt" viewBox="0 0 310.000000 310.000000"
 preserveAspectRatio="xMidYMid meet">
<metadata>
Created by potrace 1.14, written by Peter Selinger 2001-2017
</metadata>
<g transform="translate(0.000000,310.000000) scale(0.100000,-0.100000)"
fill="#000000" stroke="none">
<path d="M390 2520 l0 -190 193 -2 192 -3 3 -967 2 -968 190 0 190 0 2 483 3
482 288 3 287 2 0 -290 0 -290 100 0 100 0 0 95 0 95 95 0 95 0 2 678 3 677
193 3 192 2 0 95 0 95 95 0 95 0 0 95 0 95 -1160 0 -1160 0 0 -190z m1350
-485 l0 -295 -287 2 -288 3 -3 280 c-1 154 0 285 3 292 3 10 69 13 290 13
l285 0 0 -295z"/>
</g>
</svg>
